<?xml version="1.0" encoding="utf-8"?>
<svg version="1.1" id="Layer_1" x="0px" y="0px" width="100%" viewBox="0 0 1048 688" enable-background="new 0 0 1048 688" xmlns="http://www.w3.org/2000/svg">
  <path fill="#FFFFFF" opacity="1.000000" stroke="none" d=" M999.001587,417.015930 C1012.948486,433.272369 1021.893677,451.664795 1025.905029,472.337158 C1027.485474,480.482147 1029.026489,488.864746 1028.780029,497.085022 C1028.309448,512.794678 1025.750122,528.274475 1019.577698,542.976379 C1011.663391,561.827393 1000.067810,578.116516 984.812622,591.541809 C964.397400,609.508179 940.775146,621.473999 913.781250,625.904541 C903.584229,627.578125 893.184082,628.850220 882.873840,628.869934 C773.218689,629.079407 663.562927,628.950623 553.907532,629.044983 C533.956116,629.062134 514.001221,630.088074 494.055054,629.898682 C465.812561,629.630676 437.569519,628.877502 409.340759,627.917847 C393.125275,627.366638 376.924438,626.171326 360.741302,624.945435 C346.416229,623.860291 332.060181,622.810181 317.832855,620.891541 C293.735107,617.641602 269.709106,613.839111 245.687943,610.047180 C220.157303,606.017090 195.122772,599.839294 170.852524,590.939819 C151.885757,583.985168 133.273758,576.062683 114.304611,569.114990 C91.357071,560.710144 68.386299,552.404907 46.740307,540.937012 C36.391617,535.454346 26.932846,528.633850 20.359388,518.738037 C10.256997,503.529633 11.890132,483.569427 24.831347,469.698456 C37.096725,456.551880 53.018951,449.272888 69.375847,443.093842 C102.773552,430.477356 137.233429,421.345612 171.887863,412.924561 C196.164246,407.025391 220.324844,400.610870 244.713211,395.223572 C264.467743,390.859894 284.456940,387.525726 304.393433,384.027893 C322.683594,380.818909 340.999176,377.692963 359.385559,375.115112 C372.705597,373.247559 386.144165,372.147919 399.557617,371.042480 C418.652679,369.468781 437.762817,368.034943 456.886169,366.862122 C471.266296,365.980194 485.676483,365.102509 500.074707,365.078522 C626.210571,364.868408 752.346802,364.825531 878.482910,364.829437 C887.418884,364.829712 896.444763,364.932953 905.273071,366.133392 C926.798706,369.060364 946.821594,376.401154 965.420898,387.803375 C978.209167,395.643188 988.815247,405.844971 999.001587,417.015930 z"/>
  <path fill="#FFFFFF" opacity="1.000000" stroke="none" d=" M475.103394,255.404694 C480.958191,247.092285 489.378143,244.240570 498.390167,244.131042 C527.368164,243.778931 556.353088,244.000000 585.694336,244.000000 C585.801331,242.643204 585.986572,241.383667 585.987366,240.124023 C586.004028,213.131485 586.051331,186.138626 585.896301,159.146957 C585.884644,157.130920 584.950684,154.504776 583.506348,153.209747 C571.934021,142.833969 571.247864,129.746170 579.048767,119.713402 C588.142029,108.018356 602.826050,106.130600 614.247986,116.036324 C624.536316,124.958900 625.301025,140.217468 615.717590,150.417450 C612.047363,154.323822 610.865845,157.868744 610.904175,162.912582 C611.107971,189.724762 611.000000,216.539337 611.000000,244.000000 C612.891052,244.000000 614.645874,244.000000 616.400635,244.000000 C643.226562,244.000000 670.052490,244.019180 696.878418,243.987640 C704.347961,243.978867 711.291992,245.722595 717.379456,250.117477 C722.128784,253.546341 724.895935,258.432068 724.927307,264.220337 C725.084595,293.211487 724.998718,322.203949 724.986572,351.195953 C724.986389,351.660431 724.837708,352.124878 724.639526,353.284546 C640.966858,353.284546 557.295105,353.284546 473.205841,353.284546 C473.158234,352.423737 473.010742,350.993530 473.010071,349.563263 C472.996582,320.904510 472.951904,292.245514 473.080505,263.587341 C473.092285,260.958984 474.233490,258.335693 475.103394,255.404694 M672.064941,288.539642 C670.567444,286.254852 669.373596,283.681152 667.521240,281.733978 C658.273743,272.013489 644.116333,269.505341 632.422791,277.444458 C619.995850,285.881531 616.322571,299.499847 623.050537,312.924744 C629.414368,325.623016 646.166077,330.924316 659.040344,325.040405 C672.423767,318.923737 678.863281,302.399048 672.064941,288.539642 M549.537903,327.430908 C550.682800,327.295410 551.824646,327.121552 552.973083,327.030212 C569.384583,325.724792 580.681702,309.563660 576.705322,293.661713 C572.853088,278.256622 557.518738,269.625214 541.813232,274.141602 C528.293396,278.029480 518.698425,293.321808 523.861938,308.383331 C527.906616,320.181396 536.479675,326.103638 549.537903,327.430908 z"/>
  <path fill="#FFFFFF" opacity="1.000000" stroke="none" d=" M42.999992,390.000000 C42.999992,373.683075 43.329472,357.856873 42.883114,342.052551 C42.589954,331.672577 52.700012,321.322662 62.860252,321.853607 C74.815163,322.478333 86.827705,322.000000 98.815262,322.000000 C112.692200,322.000000 117.555534,326.040070 121.296318,339.578033 C124.542336,351.325378 128.387268,362.906128 131.872604,374.588806 C135.229645,385.841522 138.465103,397.130463 141.815262,408.613525 C108.558151,417.893890 74.913086,426.646545 42.999992,442.288391 C42.999992,424.678955 42.999992,407.589478 42.999992,390.000000 z"/>
  <path fill="#FFFFFF" opacity="1.000000" stroke="none" d=" M68.067741,673.000000 C58.938694,673.644592 51.438099,671.295654 46.495419,663.837769 C44.701714,661.131226 43.169640,657.621826 43.147652,654.467346 C42.910942,620.509277 43.000114,586.549011 43.000114,553.438599 C75.058022,566.143188 107.351257,578.941040 140.050690,591.899841 C137.643417,599.975891 135.077362,608.379333 132.636795,616.819092 C128.711136,630.394287 124.707359,643.950317 121.048569,657.598083 C118.704018,666.343506 110.536575,672.949646 101.018997,672.989502 C90.198387,673.034851 79.377434,673.000000 68.067741,673.000000 z"/>
</svg>